<svg width="20" height="20" viewBox="0 0 20 20" fill="none" xmlns="http://www.w3.org/2000/svg">
<path d="M15.4168 9.99935C15.4168 7.00781 12.9917 4.58268 10.0002 4.58268C7.00862 4.58268 4.5835 7.00781 4.5835 9.99935C4.5835 12.9909 7.00862 15.416 10.0002 15.416C12.9917 15.416 15.4168 12.9909 15.4168 9.99935Z" fill="#C79A7B" stroke="#C79A7B" stroke-width="1.5" stroke-linecap="round" stroke-linejoin="round"/>
<path d="M15.9498 4.05065L15.8415 4.15898M4.15817 4.15898L4.04984 4.05065L4.15817 4.15898ZM15.9498 15.9507L15.8415 15.8423L15.9498 15.9507ZM1.73317 10.0007H1.6665H1.73317ZM18.3332 10.0007H18.2665H18.3332ZM9.99984 18.2673V18.334V18.2673ZM9.99984 1.66732V1.73398V1.66732ZM4.15817 15.8423L4.04984 15.9507L4.15817 15.8423Z" stroke="#C79A7B" stroke-width="2" stroke-linecap="round" stroke-linejoin="round"/>
</svg>
