<svg width="134" height="30" viewBox="0 0 134 30" fill="#dfd2c0" xmlns="http://www.w3.org/2000/svg">
<path d="M0.501587 29.925H30.4266V4.13654e-08H0.501587V29.925ZM24.6667 12.0832H18.3434V5.75983H24.6667V12.0832ZM6.26026 5.75983H12.5871V17.8418H24.6667V24.1652H6.26026V5.75983ZM49.9134 4.13654e-08C46.954 4.13654e-08 44.0612 0.87754 41.6007 2.52164C39.1401 4.16574 37.2223 6.50257 36.0898 9.2366C34.9573 11.9707 34.6611 14.9791 35.2384 17.8815C35.8158 20.7839 37.2407 23.45 39.3333 25.5425C41.4258 27.6352 44.0919 29.0601 46.9943 29.6375C49.8968 30.2148 52.9052 29.9186 55.6393 28.7861C58.3734 27.6536 60.7101 25.7358 62.3543 23.2752C63.9983 20.8146 64.8759 17.9217 64.8759 14.9625C64.8712 10.9956 63.2933 7.19254 60.4883 4.38754C57.6833 1.58252 53.8803 0.00463004 49.9134 4.13654e-08ZM49.9134 24.1652C48.0933 24.1652 46.314 23.6255 44.8006 22.6142C43.2873 21.603 42.1077 20.1658 41.4112 18.4842C40.7147 16.8027 40.5325 14.9523 40.8875 13.1671C41.2426 11.382 42.1191 9.7422 43.4061 8.4552C44.6932 7.16822 46.3329 6.29175 48.118 5.93666C49.9031 5.58158 51.7535 5.76382 53.4351 6.46034C55.1166 7.15687 56.554 8.3364 57.5651 9.8498C58.5764 11.3631 59.1161 13.1424 59.1161 14.9625C59.1123 17.4021 58.1416 19.7407 56.4165 21.4657C54.6915 23.1908 52.3529 24.1614 49.9134 24.1652ZM118.419 4.13654e-08C115.459 -0.000219959 112.566 0.87711 110.105 2.52107C107.645 4.16503 105.727 6.50177 104.594 9.2358C103.461 11.9698 103.165 14.9784 103.742 17.8808C104.319 20.7833 105.744 23.4495 107.837 25.5422C109.929 27.6348 112.595 29.06 115.498 29.6374C118.4 30.2148 121.409 29.9186 124.143 28.7862C126.877 27.6537 129.214 25.736 130.858 23.2753C132.503 20.8147 133.38 17.9219 133.38 14.9625C133.375 10.9958 131.798 7.19292 128.993 4.38795C126.189 1.58297 122.385 0.00494004 118.419 4.13654e-08ZM118.419 24.1652C116.599 24.1654 114.819 23.6258 113.305 22.6148C111.792 21.6037 110.612 20.1665 109.916 18.485C109.219 16.8035 109.036 14.953 109.391 13.1678C109.746 11.3827 110.623 9.7428 111.91 8.4556C113.197 7.16851 114.837 6.29192 116.622 5.93674C118.407 5.58156 120.257 5.76374 121.938 6.46024C123.621 7.15673 125.058 8.3363 126.07 9.8497C127.08 11.3631 127.62 13.1424 127.62 14.9625C127.617 17.4019 126.646 19.7402 124.92 21.4653C123.196 23.1903 120.858 24.1612 118.419 24.1652ZM84.1656 4.13654e-08C81.2062 4.13654e-08 78.3134 0.87754 75.8529 2.52164C73.3922 4.16574 71.4745 6.50257 70.342 9.2366C69.2095 11.9707 68.9133 14.9791 69.4906 17.8815C70.0679 20.7839 71.4929 23.45 73.5854 25.5425C75.678 27.6352 78.344 29.0601 81.2465 29.6375C84.1489 30.2148 87.1574 29.9186 89.8915 28.7861C92.6255 27.6536 94.9623 25.7358 96.6064 23.2752C98.2504 20.8146 99.1284 17.9217 99.1284 14.9625C99.1234 10.9956 97.5454 7.19254 94.7405 4.38754C91.9355 1.58252 88.1325 0.00463004 84.1656 4.13654e-08ZM84.1656 24.1652C82.4697 24.166 80.8067 23.6983 79.36 22.8136C77.9133 21.9289 76.7391 20.6618 75.9671 19.1519C75.1952 17.642 74.8554 15.9481 74.9853 14.2574C75.1153 12.5665 75.7098 10.9445 76.7035 9.5703C77.6971 8.1961 79.0511 7.12321 80.616 6.46999C82.181 5.81676 83.896 5.60865 85.5716 5.86861C87.2474 6.12858 88.8187 6.8465 90.1122 7.9432C91.4057 9.0398 92.371 10.4726 92.9016 12.0832H84.1656V17.8418H92.9016C92.2939 19.6797 91.123 21.2796 89.5549 22.4146C87.9869 23.5496 86.1013 24.162 84.1656 24.1652Z" fill="#dfd2c0"/>
</svg>