<svg width="92" height="35" viewBox="0 0 92 35" fill="#dfd2c0" xmlns="http://www.w3.org/2000/svg">
<mask id="mask0_26_5197" style="mask-type:luminance" maskUnits="userSpaceOnUse" x="0" y="0" width="92" height="35">
<path d="M91.8052 0H0.805176V35H91.8052V0Z" fill="#dfd2c0"/>
</mask>
<g mask="url(#mask0_26_5197)">
<path d="M22.4057 0C18.8519 0 15.4437 1.41173 12.9308 3.92462L4.7298 12.1256C2.21691 14.6385 0.805176 18.0467 0.805176 21.6005C0.805176 29.0009 6.80434 35 14.2047 35C17.7585 35 21.1667 33.5882 23.6796 31.0753L29.3523 25.4026C29.3523 25.4025 29.3524 25.4028 29.3523 25.4026L45.8805 8.87437C47.0807 7.67423 48.7084 7 50.4057 7C53.2472 7 55.6563 8.85198 56.4915 11.4147L61.7078 6.19845C59.3281 2.4714 55.1555 0 50.4057 0C46.8519 0 43.4437 1.41173 40.9308 3.92462L18.7299 26.1256C17.5297 27.3258 15.902 28 14.2047 28C10.6703 28 7.80518 25.1349 7.80518 21.6005C7.80518 19.9032 8.47941 18.2755 9.67955 17.0753L17.8805 8.87437C19.0807 7.67423 20.7084 7 22.4057 7C25.2473 7 27.6563 8.85206 28.4915 11.4149L33.7079 6.19858C31.3282 2.47147 27.1557 0 22.4057 0Z" fill="#dfd2c0"/>
<path d="M46.7296 26.1256C45.5295 27.3258 43.9017 28 42.2045 28C39.3633 28 36.9545 26.1485 36.119 23.5861L30.9029 28.8023C33.2826 32.5289 37.455 35 42.2045 35C45.7583 35 49.1664 33.5882 51.6793 31.0753L73.8803 8.87437C75.0804 7.67423 76.7082 7 78.4054 7C81.9399 7 84.805 9.86515 84.805 13.3995C84.805 15.0968 84.1307 16.7245 82.9306 17.9247L74.7296 26.1256C73.5295 27.3258 71.9017 28 70.2045 28C67.3631 28 64.9541 26.1481 64.1188 23.5856L58.9026 28.8018C61.2823 32.5288 65.4547 35 70.2045 35C73.7582 35 77.1664 33.5882 79.6793 31.0753L87.8803 22.8744C90.3932 20.3615 91.805 16.9533 91.805 13.3995C91.805 5.99916 85.8058 0 78.4054 0C74.8517 0 71.4435 1.41173 68.9306 3.92462L46.7296 26.1256Z" fill="#dfd2c0"/>
</g>
</svg>