<svg width="54" height="35" viewBox="0 0 54 35" fill="#dfd2c0" xmlns="http://www.w3.org/2000/svg">
<g clip-path="url(#clip0_26_5187)">
<mask id="mask0_26_5187" style="mask-type:luminance" maskUnits="userSpaceOnUse" x="0" y="0" width="54" height="35">
<path d="M53.2781 0H0.778076V35H53.2781V0Z" fill="#dfd2c0"/>
</mask>
<g mask="url(#mask0_26_5187)">
<path d="M49.9968 1.09375C49.9968 1.69781 50.4865 2.1875 51.0906 2.1875H52.1843C52.7884 2.1875 53.2781 1.69781 53.2781 1.09375C53.2781 0.489689 52.7884 0 52.1843 0H51.0906C50.4865 0 49.9968 0.489689 49.9968 1.09375Z" fill="#dfd2c0"/>
<path d="M18.2781 35H23.5913L22.0445 33.4532C21.6343 33.043 21.0779 32.8125 20.4978 32.8125H18.2781C9.8212 32.8125 2.96558 25.9569 2.96558 17.5C2.96558 9.04313 9.8212 2.18751 18.2781 2.1875H35.7781C44.235 2.1875 51.0906 9.04313 51.0906 17.5C51.0906 25.9569 44.235 32.8125 35.7781 32.8125H29.2317C28.3614 32.8125 27.5268 32.4668 26.9114 31.8515L25.0993 30.0393C24.0737 29.0137 22.6827 28.4375 21.2323 28.4375H18.2781C12.2374 28.4375 7.34058 23.5406 7.34058 17.5C7.34058 11.4593 12.2374 6.5625 18.2781 6.5625H35.7781C41.8187 6.5625 46.7156 11.4593 46.7156 17.5C46.7156 23.5406 41.8187 28.4375 35.7781 28.4375H31.5747C30.7044 28.4375 29.8698 28.0918 29.2544 27.4765L27.4422 25.6643C26.4166 24.6387 25.0256 24.0625 23.5752 24.0625H18.2781C14.6537 24.0625 11.7156 21.1243 11.7156 17.5C11.7156 13.8757 14.6537 10.9375 18.2781 10.9375H35.7781C39.4024 10.9375 42.3406 13.8757 42.3406 17.5C42.3406 21.0802 39.4736 23.9908 35.9104 24.0612L35.9097 24.0625H34.309C33.4388 24.0625 32.6042 23.7168 31.9888 23.1015L30.1766 21.2893C29.3351 20.4477 28.2476 19.9088 27.083 19.7424L27.0281 19.6875H18.2781C17.07 19.6875 16.0906 18.7081 16.0906 17.5C16.0906 16.2919 17.07 15.3125 18.2781 15.3125H35.7781C36.9862 15.3125 37.9656 16.2919 37.9656 17.5C37.9656 18.7081 36.9862 19.6875 35.7781 19.6875H31.4031L32.9499 21.2343C33.3601 21.6445 33.9165 21.875 34.4966 21.875H35.7781C38.1943 21.875 40.1531 19.9162 40.1531 17.5C40.1531 15.0838 38.1943 13.125 35.7781 13.125H18.2781C15.8619 13.125 13.9031 15.0838 13.9031 17.5C13.9031 19.9162 15.8619 21.875 18.2781 21.875H26.3096C27.1799 21.875 28.0145 22.2207 28.6299 22.836L30.4421 24.6482C31.4676 25.6738 32.8586 26.25 34.309 26.25H36.325V26.2332C40.9027 25.9509 44.5281 22.1488 44.5281 17.5C44.5281 12.6676 40.6105 8.75 35.7781 8.75H18.2781C13.4456 8.75 9.52808 12.6676 9.52808 17.5C9.52808 22.3325 13.4456 26.25 18.2781 26.25H23.5752C24.4455 26.25 25.2801 26.5957 25.8955 27.211L27.7077 29.0232C28.7333 30.0488 30.1243 30.625 31.5747 30.625H35.7781C43.0268 30.625 48.9031 24.7488 48.9031 17.5C48.9031 10.2512 43.0268 4.375 35.7781 4.375H18.2781C11.0293 4.375 5.15308 10.2512 5.15308 17.5C5.15308 24.7488 11.0293 30.625 18.2781 30.625H21.2323C22.1025 30.625 22.9371 30.9707 23.5525 31.586L25.3647 33.3982C26.3903 34.4238 27.7813 35 29.2317 35H35.7781C45.4431 35 53.2781 27.165 53.2781 17.5C53.2781 7.83501 45.4431 -8.44939e-07 35.7781 0L18.2781 3.61606e-06C8.61309 4.461e-06 0.778075 7.83502 0.778076 17.5C0.778077 27.165 8.6131 35 18.2781 35Z" fill="#dfd2c0"/>
</g>
</g>
<defs>
<clipPath id="clip0_26_5187">
<rect width="53" height="35" fill="#dfd2c0" transform="translate(0.7771)"/>
</clipPath>
</defs>
</svg>