<svg width="482" height="192" viewBox="0 0 482 192" fill="none" xmlns="http://www.w3.org/2000/svg">
<path d="M481.487 99.6724L451.727 100.593L421.967 101.382L362.446 102.828L302.926 104.012L243.406 104.932L183.886 105.721C163.994 105.984 144.258 106.247 124.366 106.379L64.8456 106.905L5.01222 107.168V99.4094C13.9402 99.4094 23.0249 99.2779 32.1096 99.2779C41.1942 99.2779 50.2789 99.1464 59.3635 99.2779C77.6895 99.6724 95.8588 100.198 114.028 101.25C132.197 102.434 150.523 104.143 168.536 107.431C177.464 109.14 186.549 111.244 195.163 114.4C199.549 115.978 203.778 117.95 207.537 120.449C209.417 121.764 211.297 123.21 212.863 124.92C214.429 126.629 215.839 128.602 216.622 130.574C217.562 132.546 218.032 134.782 218.032 137.149C218.032 139.384 217.249 141.751 215.839 143.724C213.176 147.669 209.104 150.299 205.031 152.402C200.802 154.375 196.417 155.953 192.031 157.136C187.645 158.32 183.103 159.24 178.56 160.029C169.476 161.607 160.391 162.528 151.306 163.185C142.222 163.843 133.137 164.106 123.896 164.106C87.4006 164.237 51.062 161.476 15.3499 155.821C33.3626 158.057 51.3753 159.503 69.5446 160.424C87.7139 161.344 105.727 161.607 123.896 161.081C141.909 160.555 160.078 159.109 177.464 155.821C181.85 155.032 186.079 153.98 190.308 152.797C194.537 151.613 198.453 150.167 202.212 148.326C205.814 146.485 209.104 144.118 210.827 141.357C212.55 138.595 212.55 135.439 210.983 132.283C209.574 129.259 206.911 126.761 203.465 124.657C200.176 122.553 196.26 120.843 192.187 119.528C184.199 116.767 175.428 114.926 166.656 113.348C157.885 111.902 148.957 110.85 140.029 110.061C131.101 109.272 122.173 108.614 113.088 108.22C95.0756 107.299 77.0629 107.036 58.8936 106.905C49.809 106.905 40.7243 106.905 31.7963 107.036C22.7116 107.036 13.627 107.299 4.54233 107.299C2.03622 107.299 0 105.59 0 103.486C0 101.382 2.03622 99.6724 4.54233 99.6724L64.0625 99.1464L123.583 98.7519C143.475 98.6204 163.367 98.4889 183.103 98.4889L242.623 98.3574H302.143L361.663 98.6204L421.183 99.1464L450.944 99.4094L481.487 99.6724Z" fill="#C6997B"/>
<path d="M357.59 171.995C334.878 148.326 320.155 119.923 313.89 90.2046C307.624 60.6179 309.974 29.7162 321.408 1.31298L326.42 2.89094C318.745 18.802 310.757 34.5816 302.455 50.3611C294.154 66.0092 285.539 81.6573 276.924 97.1739C268.31 112.69 259.695 128.339 251.393 143.987C243.092 159.635 235.104 175.414 227.429 191.325C234.634 175.283 242.309 159.372 250.14 143.592C257.972 127.813 266.273 112.033 274.418 96.3849C282.563 80.7368 290.708 64.9572 298.696 49.1777C306.528 33.3981 314.203 17.487 321.408 1.44448C321.878 0.261011 323.444 -0.264975 324.854 0.129515C326.107 0.524004 326.89 1.70747 326.42 2.89094C315.769 30.7682 314.359 60.7494 321.095 89.2841C327.83 117.819 342.71 145.039 364.795 167.13C366.518 168.839 366.205 171.338 364.168 172.653C362.289 173.836 359.313 173.705 357.59 171.995Z" fill="#C6997B"/>
</svg>
